<svg width="16" height="16" viewBox="0 0 16 16" fill="none" xmlns="http://www.w3.org/2000/svg">
<g clip-path="url(#clip0)">
<path d="M1.83051 12.339L3.15254 11.0169L4.16949 12.0339L2.84746 13.3559L1.83051 12.339ZM7.22034 15.1525V13.0169H8.67797V15.1525H7.22034ZM2.16949 6.50847V7.9661H0V6.50847H2.16949ZM10.1356 3.49153C10.791 3.87571 11.3164 4.39548 11.7119 5.05085C12.1073 5.70621 12.3051 6.42938 12.3051 7.22034C12.3051 8.41808 11.8814 9.44068 11.0339 10.2881C10.1864 11.1356 9.16384 11.5593 7.9661 11.5593C6.76836 11.5593 5.74576 11.1356 4.8983 10.2881C4.05085 9.44068 3.62712 8.41808 3.62712 7.22034C3.62712 6.42938 3.81921 5.70621 4.20339 5.05085C4.58757 4.39548 5.11864 3.87571 5.79661 3.49153V0H10.1356V3.49153ZM13.7288 6.50847H15.8983V7.9661H13.7288V6.50847ZM11.7288 12.0339L12.7458 11.0508L14.0678 12.339L13.0508 13.3559L11.7288 12.0339Z" fill="#333333"/>
</g>
<defs>
<clipPath id="clip0">
<rect width="16" height="15.1864" fill="white"/>
</clipPath>
</defs>
</svg>
